<svg width="75" height="25" viewBox="0 0 75 25" fill="none" xmlns="http://www.w3.org/2000/svg">
<path d="M10.522 5.66113H0.220742V9.05794H6.99015C7.43163 9.05794 7.72596 9.43536 7.72596 9.81278V15.7761H6.25434C5.81286 15.7761 5.51854 15.3986 5.51854 15.0212V10.7186H2.6489C1.17729 10.7186 0 11.9264 0 13.436V16.4554C0 17.9651 1.17729 19.1729 2.6489 19.1729H13.1709V8.37858C13.1709 6.86889 11.9936 5.66113 10.522 5.66113Z" fill="white" fill-opacity="0.7"/>
<path d="M23.1046 15.7763H21.633C21.1915 15.7763 20.8972 15.3989 20.8972 15.0215V5.66136H18.0275C16.5559 5.66136 15.3789 6.86912 15.3789 8.37881V16.4557C15.3789 17.9654 16.5559 19.1731 18.0275 19.1731H28.5495V0H23.031L23.1046 15.7763Z" fill="white" fill-opacity="0.7"/>
<path d="M38.4838 15.7761H37.0122C36.5707 15.7761 36.2764 15.3986 36.2764 15.0212V5.66113H30.7578V16.4554C30.7578 17.9651 31.9351 19.1729 33.4067 19.1729H38.4838V20.8335H30.9786V24.7587H41.3534C42.8251 24.7587 44.0024 23.551 44.0024 22.0413V5.66113H38.4838V15.7761Z" fill="white" fill-opacity="0.7"/>
<path d="M56.7305 5.66113H46.1348V16.4554C46.1348 17.9651 47.3121 19.1729 48.7837 19.1729H59.1587V15.7761H52.3892C51.9477 15.7761 51.6534 15.3986 51.6534 15.0212V9.05794H53.125C53.5665 9.05794 53.8608 9.43536 53.8608 9.81278V14.1154H56.7305C58.2021 14.1154 59.3794 12.9076 59.3794 11.398V8.37858C59.3794 6.86889 58.2021 5.66113 56.7305 5.66113Z" fill="white" fill-opacity="0.7"/>
<path d="M72.109 5.66113H61.5869V19.1729H67.1055V9.05794H68.5771C69.0186 9.05794 69.3129 9.43536 69.3129 9.81278V19.1729H74.8315V8.37858C74.7579 6.86889 73.5806 5.66113 72.109 5.66113Z" fill="white" fill-opacity="0.7"/>
</svg>
