<svg width="117" height="16" viewBox="0 0 117 16" fill="none" xmlns="http://www.w3.org/2000/svg">
<path fill-rule="evenodd" clip-rule="evenodd" d="M3.26099 0L0 3.12172V15.5891H3.26099V9.36516H8.12188V6.24344H3.26099V3.12172H9.74225V0H3.26099Z" fill="white" fill-opacity="0.7"/>
<path fill-rule="evenodd" clip-rule="evenodd" d="M18.186 0L14.9385 3.12172V15.5891H18.186V9.36516H21.4129V15.5891H24.6807V3.12172L21.4129 0H18.186ZM18.186 6.22413H21.413V3.12193H18.186V6.22413Z" fill="white" fill-opacity="0.7"/>
<path fill-rule="evenodd" clip-rule="evenodd" d="M113.66 0V6.24344H110.433V0H107.165V15.5891H110.433V9.36516H113.66V15.5891H116.907V0H113.66Z" fill="white" fill-opacity="0.7"/>
<path fill-rule="evenodd" clip-rule="evenodd" d="M31.1748 0V15.5891H34.4155V9.36516H37.6764V15.5891H40.9171V9.36516L37.6764 6.24344H34.4155V3.12172H37.6764V6.24344H40.9171V3.12172L37.6764 0H31.1748Z" fill="white" fill-opacity="0.7"/>
<path fill-rule="evenodd" clip-rule="evenodd" d="M50.673 0L47.4121 3.12172V15.5891H50.673V9.36516H55.534V6.24344H50.673V3.12172H57.1544V0H50.673Z" fill="white" fill-opacity="0.7"/>
<path fill-rule="evenodd" clip-rule="evenodd" d="M77.3093 0L77.2891 3.12172H80.5295V15.5891H83.7703V3.12172H87.0313V0H77.3093Z" fill="white" fill-opacity="0.7"/>
<path fill-rule="evenodd" clip-rule="evenodd" d="M64.9419 0L61.7012 3.12172V12.4674L64.9419 15.5891H71.4434V12.4674H64.962H64.9419V9.36516H69.8231V6.24344H64.9419V3.12172H71.4434V0H64.9419Z" fill="white" fill-opacity="0.7"/>
<path fill-rule="evenodd" clip-rule="evenodd" d="M95.4671 0L92.2266 3.12172V12.4674L95.4671 15.5891H101.969V12.4674H95.4873V3.12172H101.969V0H95.4671Z" fill="white" fill-opacity="0.7"/>
</svg>
