<svg width="65" height="32" viewBox="0 0 65 32" fill="none" xmlns="http://www.w3.org/2000/svg">
<path d="M3.93242 11.9654C5.06909 11.3832 6.33282 11.1031 7.59656 11.1621C10.0464 11.2505 11.3948 12.5476 11.4513 15.0977C11.5078 17.7657 11.4937 20.4115 11.4795 23.0721C11.4795 24.1555 11.2042 24.4061 10.1805 24.4061H8.76148C7.85069 24.4061 7.5683 24.1186 7.5542 23.1605V16.0189C7.5542 14.9134 7.05293 14.4565 5.98687 14.5081C5.80335 14.5081 5.61272 14.5302 5.42914 14.5671C4.02419 14.8619 3.94652 14.9724 3.94652 16.4611V22.8289C3.94652 24.1924 3.72065 24.4208 2.44276 24.4208H1.0096C0.338903 24.4208 0.0423556 24.0965 0 23.3743V6.54104C0 5.31025 0.254192 5.05231 1.41201 5.05231H2.66869C3.64299 5.05231 3.93947 5.33976 3.96068 6.36418C3.98888 7.90453 3.96068 9.43748 3.96068 10.9705C3.93242 11.2579 3.93242 11.5601 3.93242 11.9654Z" fill="white" fill-opacity="0.7"/>
<path fill-rule="evenodd" clip-rule="evenodd" d="M24.5574 19.4138C24.58 19.1788 24.6015 18.9553 24.626 18.749C24.6043 18.4555 24.5877 18.1875 24.572 17.9349C24.5427 17.462 24.5167 17.0431 24.4671 16.6119C24.1832 14.0241 22.9229 12.4394 20.6936 11.9742C19.8561 11.8143 19.0049 11.7561 18.153 11.807C15.7924 11.8943 14.1859 13.0791 13.5699 15.289C12.9884 17.397 12.9884 19.6286 13.5699 21.7367C13.9646 23.4086 15.2451 24.6807 16.8516 25.0077C18.1256 25.3276 19.4476 25.3494 20.7216 25.0586C22.591 24.7315 24.0444 23.1759 24.3215 21.2132C24.4434 20.5989 24.5035 19.9736 24.5574 19.4138ZM20.7261 18.6388C20.7291 18.6912 20.7322 18.7448 20.7354 18.7998C20.6731 19.4612 20.5691 20.1227 20.4309 20.7842C20.292 21.5474 19.6345 22.0781 18.8941 22.0272C18.1114 22.1217 17.3984 21.562 17.2533 20.7551C16.9071 19.3013 16.9071 17.7821 17.2533 16.3283C17.3915 15.5287 18.0771 14.9763 18.8455 15.0344C19.6345 14.969 20.3406 15.5432 20.4794 16.3574C20.5485 16.6045 20.5971 16.8516 20.6245 17.1061C20.6631 17.5492 20.6894 18.0047 20.7261 18.6388Z" fill="white" fill-opacity="0.7"/>
<path fill-rule="evenodd" clip-rule="evenodd" d="M49.0077 15.059C50.2565 15.0007 50.5426 15.4155 50.3751 16.7688C50.0955 16.8025 49.8154 16.8347 49.5349 16.8669C48.7239 16.9602 47.9099 17.0538 47.0963 17.1836C45.8193 17.3946 44.5774 17.8311 43.9568 19.2062C42.624 22.0948 44.3823 25.1362 47.4377 25.2526C48.8471 25.3399 50.2288 24.8743 51.3308 23.9575L51.5265 24.2558C52.0148 24.8743 52.8168 25.1071 53.5353 24.8306C54.1772 24.6123 54.1772 24.0302 54.1772 23.4627V15.9684C54.1772 13.8511 53.2635 12.5488 51.3866 12.0831C49.3215 11.6029 47.1659 11.712 45.1497 12.4032C44.2775 12.6725 44.2009 13.6402 44.3961 14.7752C44.5147 15.4591 45.1359 15.6847 45.9799 15.5246C46.9777 15.3064 47.9892 15.1463 49.0077 15.059ZM49.706 19.0862C49.9395 19.0536 50.1805 19.0201 50.4309 18.9806H50.4378C50.4378 19.9206 50.4377 20.7603 50.4171 21.6071C50.4171 21.709 50.3819 21.8109 50.3261 21.8982C50.0192 22.3347 48.7008 22.5894 48.0796 22.3347C47.4521 22.0583 47.0963 21.3597 47.2356 20.6613C47.2494 19.9701 47.7451 19.388 48.4078 19.3007C48.8227 19.2093 49.2503 19.1497 49.706 19.0862Z" fill="white" fill-opacity="0.7"/>
<path d="M27.5987 11.9131V10.1911C27.5433 9.66701 27.8553 9.17286 28.3331 9.04558C28.9628 8.82093 29.6 8.62627 30.2441 8.46906C30.7081 8.30432 31.2139 8.57389 31.3659 9.0755C31.4076 9.21025 31.4213 9.35253 31.4076 9.49481C31.4282 10.236 31.4076 10.9697 31.4076 11.8008H33.2358C34.129 11.8233 34.4342 12.1302 34.4685 13.1335C34.517 15.155 34.413 15.2748 32.5643 15.2748H31.4905C31.4631 15.4545 31.4425 15.6342 31.4351 15.8214V20.0965C31.4351 21.4292 31.8025 21.8335 33.0003 21.9308C34.053 22.0132 34.337 22.2603 34.337 23.1887C34.3713 24.6636 34.0947 25.1653 33.0003 25.2327C32.1277 25.3 31.255 25.2551 30.3967 25.0904C28.6165 24.7011 27.6542 23.4507 27.5919 21.4142C27.5364 19.6398 27.5713 17.8579 27.5644 16.0834V15.2823H26.4838C25.9786 15.3272 25.5283 14.9155 25.4865 14.3689C25.4865 14.3389 25.4865 14.309 25.4865 14.279C25.3414 12.9164 25.5626 12.557 26.7609 12.1901L27.5987 11.9131Z" fill="white" fill-opacity="0.7"/>
<path d="M41.8456 20.2415C41.8456 22.5557 41.8887 24.8697 41.8456 27.1838C41.8315 29.851 39.7679 32.0073 37.233 31.9998C36.9902 31.9998 36.7474 31.9772 36.5117 31.9397C35.6267 31.8195 35.312 31.4588 35.2979 30.4896V29.6331C35.3338 28.8217 35.5766 28.5437 36.3332 28.3934C37.5117 28.1605 37.89 27.7022 37.897 26.4024V13.2392C37.897 12.1197 38.1687 11.8267 39.2323 11.7891H40.6748C41.5316 11.8267 41.8527 12.1573 41.8527 13.0588V20.1965L41.8456 20.2415Z" fill="white" fill-opacity="0.7"/>
<path d="M59.5697 12.2131C60.6447 11.4269 61.9184 10.9926 63.2438 10.9476C64.5546 10.9476 64.8566 11.2246 64.8493 12.5426V13.1341C64.8493 13.9878 64.5035 14.2873 63.6862 14.3771C62.9126 14.4745 62.1469 14.6093 61.3958 14.789C60.8878 14.9013 60.6963 15.2083 60.7036 15.7849C60.7401 18.1961 60.7036 20.5773 60.7036 22.9735C60.7036 24.1491 60.4533 24.3962 59.2822 24.4187H57.5959C57.1098 24.4561 56.6826 24.0892 56.6461 23.6025C56.6388 23.5426 56.6388 23.4827 56.6461 23.4228V12.3554C56.609 11.8611 56.97 11.4343 57.4561 11.3894H57.4926C58.3099 11.2546 59.1716 11.1199 59.5697 12.2131Z" fill="white" fill-opacity="0.7"/>
<path d="M41.5074 9.81597C42.2558 7.13752 41.9812 5.7872 40.6776 5.52753C40.8776 6.44008 41.0995 7.37494 40.1438 8.00562C39.64 8.33205 39.2475 8.21338 38.3584 7.53079C37.9506 8.36917 38.0918 9.20754 38.2771 10.1053C37.0023 9.88273 36.0019 9.35594 35.5354 8.12429C35.0536 7.00399 35.3202 5.70558 36.1945 4.8672C36.4984 4.55556 36.8323 4.27364 37.1802 4.01391C38.6103 2.93811 38.8843 1.89937 38.1359 0.281925C38.0992 0.192903 38.0766 0.0964819 38.0545 0C39.6473 0.244873 41.1515 0.882889 42.4263 1.85486C45.2121 4.14004 44.8788 8.23563 41.8039 9.7492C41.7073 9.7492 41.6033 9.77146 41.5074 9.81597Z" fill="white" fill-opacity="0.7"/>
</svg>
