<svg width="85" height="17" viewBox="0 0 85 17" fill="none" xmlns="http://www.w3.org/2000/svg">
<path d="M0 15.8196V1.34282H3.76082V3.2843C4.62811 1.80093 5.88558 1.07312 7.59505 1.07312C9.30452 1.07312 10.5871 1.83067 11.5065 3.40329C12.9765 1.81679 14.1065 1.08502 15.8662 1.08502C19.0417 1.08502 20.8284 2.91742 20.8284 6.28674V15.8295H16.7837V7.97636C16.7837 5.95358 16.3645 5.03738 14.8154 5.03738C13.2662 5.03738 12.3989 6.02894 12.3989 7.97636V15.8196H8.33099V7.97636C8.33099 5.95358 7.9099 5.03738 6.36076 5.03738C4.81161 5.03738 3.94626 6.02894 3.94626 7.97636V15.8196H0Z" fill="white" fill-opacity="0.7"/>
<path fill-rule="evenodd" clip-rule="evenodd" d="M33.9784 1.51491C31.1977 0.366821 28.0176 1.04319 25.91 3.23094C24.5272 4.63273 23.7517 6.54664 23.7582 8.54174C23.7387 10.5322 24.4841 12.4503 25.8327 13.8803C27.2776 15.443 29.0102 16.1986 31.1639 16.1986C33.1763 16.2327 35.1134 15.4134 36.5183 13.9338C37.9342 12.4782 38.6431 10.6696 38.6431 8.48819C38.5976 5.4115 36.759 2.66299 33.9784 1.51491ZM34.521 8.59532C34.521 10.5685 33.026 12.155 31.1871 12.155C29.3753 12.155 27.8532 10.5923 27.8532 8.59532C27.8532 6.59832 29.3444 5.01182 31.1871 5.01182C33.0299 5.01182 34.521 6.62212 34.521 8.59532Z" fill="white" fill-opacity="0.7"/>
<path d="M41.5742 15.8196V1.34282H45.5128L45.4606 3.2843C46.3279 1.82869 47.6394 1.07312 49.5034 1.07312C52.4182 1.07312 54.3093 2.96105 54.3093 6.27484V15.8176H50.1602V7.97636C50.1602 5.95358 49.741 5.03738 48.1378 5.03738C46.5346 5.03738 45.6441 6.02894 45.6441 7.97636V15.8196H41.5742Z" fill="white" fill-opacity="0.7"/>
<path fill-rule="evenodd" clip-rule="evenodd" d="M80.3333 1.51582C77.5526 0.3679 74.3726 1.0439 72.2645 3.23106C70.883 4.63338 70.1089 6.54729 70.1166 8.54186C70.0966 10.532 70.8413 12.4501 72.1892 13.8804C73.6321 15.4431 75.3648 16.1987 77.5185 16.1987C79.5314 16.2324 81.4689 15.4132 82.8748 13.934C84.2907 12.4784 84.9996 10.6697 84.9996 8.48831C84.953 5.41169 83.114 2.66373 80.3333 1.51582ZM80.8776 8.59572C80.8776 10.5689 79.3806 12.1554 77.5436 12.1554C75.7318 12.1554 74.2078 10.5927 74.2078 8.59572C74.2078 6.59872 75.699 5.01222 77.5436 5.01222C79.3883 5.01222 80.8776 6.62252 80.8776 8.59572Z" fill="white" fill-opacity="0.7"/>
<path d="M57.5195 15.8198V12.8015L63.3143 5.09112H57.5195V1.345H67.9927V4.76787L62.872 12.0737H68.097V15.8198H57.5195Z" fill="white" fill-opacity="0.7"/>
</svg>
