<svg width="107" height="42" viewBox="0 0 107 42" fill="none" xmlns="http://www.w3.org/2000/svg">
<path fill-rule="evenodd" clip-rule="evenodd" d="M5.26095 31.7169C2.20831 31.7169 0 34.0943 0 36.9216C0 39.7489 2.20831 41.9979 5.26095 41.9979C8.31359 41.9979 10.5219 39.6847 10.5219 36.8574C10.5219 34.0301 8.31359 31.7169 5.26095 31.7169ZM5.26088 33.3239C7.27435 33.3239 8.70321 34.9303 8.70321 36.9222C8.70321 38.9142 7.3393 40.4563 5.32583 40.4563C3.31236 40.4563 1.8835 38.85 1.8835 36.9222C1.8835 34.9303 3.24741 33.3239 5.26088 33.3239Z" fill="white" fill-opacity="0.7"/>
<path d="M13.9639 37.6929V31.9098H15.7175V37.5644C15.7175 39.4279 16.6918 40.3917 18.2505 40.3917C19.8094 40.3917 20.7836 39.4279 20.7836 37.6287V31.8456H22.5372V37.5001C22.5372 40.5202 20.8485 41.9981 18.1856 41.9981C15.6525 42.0624 13.9639 40.5844 13.9639 37.6929Z" fill="white" fill-opacity="0.7"/>
<path d="M28.9677 33.5802H25.7852V31.9737H33.9688V33.5802H30.7863V41.9335H28.9677V33.5802Z" fill="white" fill-opacity="0.7"/>
<path d="M37.2812 31.9096H44.7503V33.5161H39.0349V36.2148H44.1008V37.8213H39.0349V41.8694H37.2812V31.9096Z" fill="white" fill-opacity="0.7"/>
<path d="M48.2588 31.9096H50.0124V41.9337H48.2588V31.9096Z" fill="white" fill-opacity="0.7"/>
<path d="M55.7272 33.5802H52.5439V31.9737H60.6632V33.5802H57.4808V41.9335H55.6622V33.5802H55.7272Z" fill="white" fill-opacity="0.7"/>
<path d="M66.4432 33.5802H63.2607V31.9737H71.4442V33.5802H68.2617V41.9335H66.5081L66.4432 33.5802Z" fill="white" fill-opacity="0.7"/>
<path d="M74.7578 31.9096H82.2269V33.4518H76.5114V36.0863H81.5774V37.6285H76.5114V40.3273H82.2918V41.8694H74.7578V31.9096Z" fill="white" fill-opacity="0.7"/>
<path fill-rule="evenodd" clip-rule="evenodd" d="M90.3457 31.9096H85.8643L85.9292 41.9337H87.6828V38.4638H89.891L92.3591 41.9337H94.4374L91.7096 38.1426C93.1385 37.757 94.1127 36.7932 94.1127 35.1225C94.1127 34.2229 93.7879 33.4518 93.2683 32.9377C92.6189 32.2952 91.5797 31.9096 90.3457 31.9096ZM92.294 35.1873C92.294 36.2154 91.4497 36.8579 90.2157 36.8579H87.6178V33.5166H90.2157C91.5146 33.5166 92.294 34.0949 92.294 35.1873Z" fill="white" fill-opacity="0.7"/>
<path d="M100.348 37.9498L96.3203 31.9096H98.3987L101.257 36.3434L104.115 31.9096H106.128L102.101 37.9498V41.9337H100.282L100.348 37.9498Z" fill="white" fill-opacity="0.7"/>
<path d="M66.378 25.8052C66.3131 25.4197 65.9883 25.1626 65.6636 25.1626C65.5987 25.1626 65.5337 25.1626 65.4038 25.2269C65.4038 25.2269 64.4296 25.6767 63.8451 25.0984C62.9358 24.006 62.2214 22.1426 61.9616 20.3434C62.0265 20.2792 62.0265 20.2149 62.0265 20.1506C62.3513 19.5723 62.611 18.6727 62.7409 17.7089C62.8708 17.9016 62.9358 18.0944 63.0657 18.2872C63.0657 18.2872 63.0657 18.2872 63.0657 18.223C63.3255 17.3875 63.2605 16.5522 62.8708 15.8454C63.1306 16.1667 63.91 16.1024 63.91 16.1024C62.4811 14.7531 63.1956 13.6607 63.1956 13.6607C63.3904 13.0181 64.4945 13.3394 64.4945 13.3394C64.2347 12.7611 63.5203 12.6969 63.3904 12.6969C64.8193 12.5683 65.3389 13.4679 65.3389 13.4679C65.9234 12.3113 64.5595 11.6688 64.5595 11.6688C64.5595 11.6688 64.9492 10.8334 62.3513 9.61257C61.1172 9.03424 60.5977 8.52015 60.3379 8.07037C60.3379 8.00614 60.2729 8.00614 60.208 8.00614C60.143 8.00614 60.143 8.07037 60.143 8.07037C60.208 8.71293 60.4028 9.86957 61.3121 10.5764C61.3121 10.5764 60.5977 10.1908 60.2729 9.86957C60.2729 9.86957 59.7533 10.3836 59.2337 11.2189C59.1688 11.3475 59.1038 11.476 59.0389 11.5402C57.1554 11.2832 57.0905 7.36358 57.0905 7.36358C57.0255 6.59248 56.376 6.27117 56.376 6.27117L49.9462 2.09452C49.2317 1.64473 48.3225 0.873637 47.8678 0.102539C47.7372 0.552321 47.6722 1.00218 47.6722 1.45196C47.7372 2.99408 48.907 4.47197 50.2059 5.24306C48.907 4.79328 47.8021 3.95795 47.0227 2.86561C46.9578 3.3154 46.8928 3.76518 47.0227 4.27927C47.4124 6.46394 49.4915 8.19891 51.6998 8.07037C50.141 8.19891 48.5173 7.68482 47.2176 6.65672C47.2825 7.1065 47.4124 7.62059 47.6073 8.07037C48.4523 9.80527 50.2709 10.8334 52.0245 10.7049C51.0503 10.9619 50.0111 10.8977 49.0369 10.6407C49.2967 11.0905 49.6214 11.476 50.0111 11.7972C50.7905 12.5041 51.8297 12.8897 52.7389 12.8897C52.2843 13.4037 50.0761 12.8897 50.0761 12.8897C48.5822 12.6326 47.1526 12.8253 45.8537 14.239L45.7887 14.3675C45.5289 14.4318 45.2691 14.496 45.0093 14.496C44.5547 14.4318 44.2949 14.239 44.0351 13.9178C43.5805 13.4037 43.5805 12.6969 44.1001 11.8616C44.8794 10.4479 44.4898 9.48403 44.0351 8.96994C43.5805 8.45592 42.9959 8.19891 42.4114 8.07037C42.0867 7.81336 41.697 7.68482 41.2423 7.68482C40.6578 7.68482 40.1382 7.94183 39.6836 8.39169C40.1382 8.84147 40.6578 9.09848 41.2423 9.09848C41.632 9.09848 42.0217 8.96994 42.3465 8.77716C42.8011 8.84147 43.1258 9.03424 43.4506 9.35548C43.9052 9.86957 43.9052 10.5764 43.3856 11.4117C42.6063 12.8253 42.9959 13.7892 43.4506 14.3032C43.8403 14.7531 44.5547 15.0743 45.1392 15.1386C44.7495 15.8454 44.6197 16.6165 44.4898 17.1948C44.4898 17.3233 44.4248 17.5161 44.4248 17.6446C44.3599 17.9016 44.2949 18.223 44.165 18.4157C43.8403 18.9297 43.2557 19.1225 42.7362 18.994C42.9959 19.3153 43.3856 19.5081 43.7104 19.6365C43.6454 19.7008 43.5805 19.7651 43.5155 19.8293C42.9959 20.2149 42.4114 20.2149 41.9568 19.9578C42.1516 20.3434 42.4764 20.6004 42.7362 20.7932C42.2815 21.1787 41.9568 21.3715 41.9568 21.3715C41.9568 21.3715 42.0867 22.7852 41.3722 24.1988C41.3722 24.1988 42.0867 25.2269 42.5413 26.1907H45.2042C45.464 26.1907 45.5939 25.9979 45.5939 25.8052C45.6588 25.8695 45.7238 25.9979 45.7238 26.1265C45.7238 26.1907 45.7238 26.1907 45.7238 26.255C45.9186 26.1265 46.0485 25.9337 45.9836 25.7409C45.9186 25.3554 45.5939 25.0984 45.2691 25.0984C45.2042 25.0984 45.1392 25.0984 45.0093 25.1626C45.0093 25.1626 43.7753 25.6125 43.3856 24.7771C43.0609 24.0703 43.2557 22.9136 44.1001 22.4638C44.7495 22.0783 47.2825 21.243 47.7372 20.4719C48.1276 19.7651 48.5822 18.6084 49.0369 18.2872C49.2967 19.2511 49.7513 21.243 47.6722 21.8855C47.6722 21.8855 47.6722 23.0422 46.9578 24.3916C46.9578 24.3916 47.7372 25.3554 48.1276 26.3835H50.7905C51.0503 26.3835 51.1802 26.1907 51.1802 25.9979C51.2451 26.0622 51.3101 26.1907 51.3101 26.3193C51.3101 26.3835 51.3101 26.3835 51.3101 26.4478C51.5049 26.3193 51.6348 26.1265 51.5699 25.9337C51.5049 25.5482 51.1802 25.2911 50.8554 25.2911C50.7905 25.2911 50.7255 25.2911 50.5956 25.3554C50.5956 25.3554 49.3616 25.8695 48.9719 25.0341C48.6472 24.3916 48.842 23.2992 49.7513 22.8494C50.5956 22.4638 52.609 21.5643 53.1286 20.9217C53.6482 20.2792 53.4534 18.0944 53.4534 18.0944C53.5833 18.0944 55.2719 18.737 56.5709 19.6365C56.8307 20.4076 56.9606 21.1787 55.6616 21.6285C55.4668 21.6927 55.2719 21.6927 55.142 21.6285C55.2719 21.7571 55.4018 21.8855 55.5317 21.9498C55.5317 22.4638 55.4667 23.5563 54.8173 24.5844C54.8173 24.5844 55.2719 25.1626 55.6616 25.8052C55.5317 25.8695 55.3369 25.8052 55.142 25.7409C55.0771 25.7409 55.0771 25.6767 55.0121 25.6767C55.0771 25.9979 55.2719 26.255 55.5966 26.4478C55.7265 26.512 55.8564 26.5763 56.0513 26.5763H58.6492C58.909 26.5763 59.0389 26.3835 59.0389 26.1907C59.1038 26.255 59.1688 26.3835 59.1688 26.512C59.1688 26.5763 59.1688 26.5763 59.1688 26.6406C59.3636 26.512 59.4935 26.3193 59.4286 26.1265C59.3636 25.7409 59.0389 25.4839 58.7142 25.4839C58.6492 25.4839 58.5843 25.4839 58.4544 25.5482C58.4544 25.5482 57.2853 26.1265 56.8956 25.2911C56.5709 24.5844 56.8307 23.4277 57.7399 22.9779C58.1946 22.7852 58.8441 22.5282 59.4935 22.2068C59.6884 22.3996 59.8832 22.5924 60.0131 22.7852C60.4028 23.4277 60.4028 24.1345 60.143 24.6486C60.4028 24.5844 60.5977 24.4558 60.7276 24.3273C60.7276 24.3273 60.7276 24.3273 60.7276 24.3916C60.7276 24.3916 61.6368 24.8414 62.3513 25.9979C62.2214 26.0622 62.0265 25.9979 61.8966 25.9337C61.8317 25.9337 61.8317 25.8695 61.7667 25.8695C61.8317 26.1907 62.0265 26.4478 62.3513 26.6406C62.4811 26.7048 62.611 26.769 62.8059 26.769H65.4038C65.6636 26.769 65.7935 26.5763 65.7935 26.3835C65.8585 26.4478 65.9234 26.5763 65.9234 26.7048C65.9234 26.769 65.9234 26.769 65.9234 26.8333C66.2481 26.255 66.378 26.0622 66.378 25.8052Z" fill="white" fill-opacity="0.7"/>
</svg>
