<svg width="81" height="23" viewBox="0 0 81 23" fill="none" xmlns="http://www.w3.org/2000/svg">
<path fill-rule="evenodd" clip-rule="evenodd" d="M76.8921 14.6005L77.109 13.1544C78.0848 13.0432 78.7354 12.932 79.2776 12.487C79.9282 12.0421 80.7956 11.2634 80.7956 9.59489C80.7956 8.705 80.5788 7.92635 80.2535 7.1477C79.8197 6.36905 79.0607 5.9241 78.1933 5.9241H78.0848C78.0848 4.58927 77.0005 3.58815 75.6994 3.58815C74.5066 3.58815 73.3139 3.69938 72.1212 3.81062C71.1453 4.03309 70.2778 4.92298 70.1694 6.03534H65.6153C64.2057 6.03534 63.4467 6.70276 63.4467 6.70276C63.4467 6.70276 62.7961 5.81287 60.9528 6.03534C60.3745 6.03534 59.7962 6.13422 59.2179 6.23309L59.2179 6.2331C58.9287 6.28254 58.6396 6.33197 58.3505 6.36905C58.5673 5.25669 58.6758 4.14433 58.6758 2.92073V2.8095C58.6758 1.47466 57.5914 0.362305 56.2903 0.362305C54.5554 0.362305 52.4952 0.584777 51.5193 0.807249C50.435 1.14096 49.676 2.14208 49.676 3.36568C49.676 4.3668 49.2423 7.59264 49.2423 7.59264C48.158 6.59152 46.6399 6.14658 44.9051 6.14658C43.387 6.14658 41.869 6.48028 40.4594 7.25894C40.0257 6.70276 39.2667 6.36905 38.6161 6.48028C37.2065 6.48028 36.2306 6.48028 35.2547 6.59152C34.4957 6.59152 33.8451 7.03646 33.4114 7.81512C33.4114 7.81512 33.4114 7.70388 33.303 7.70388C32.8693 6.92523 32.1102 6.48028 31.2428 6.48028C29.8549 6.48028 27.5648 6.83624 26.6488 6.97862C26.4198 7.01422 26.2767 7.03646 26.255 7.03646C25.1707 6.59152 24.0864 6.25781 22.8936 6.36905C21.1588 6.36905 19.4239 6.81399 18.0143 7.70388C17.7974 4.03309 14.6529 1.47466 10.2073 1.47466C10.2073 1.47466 4.78572 1.69714 3.80985 1.91961C2.61711 2.14208 1.8581 3.25444 1.96653 4.47804C1.96653 5.25669 1.96653 6.14658 1.74967 7.1477L0.123207 17.4926C0.014776 18.0488 -0.310516 19.9398 0.882221 21.3859C1.31594 21.9421 2.18339 22.6095 3.70142 22.6095C4.352 22.6095 6.19532 22.4983 7.71335 21.8309C8.14707 21.6084 8.47237 21.3859 8.68923 21.0522C9.44824 22.0533 10.641 22.7207 12.4843 22.7207C14.0023 22.7207 15.5204 22.2758 16.8215 21.6084C18.0143 22.387 19.4239 22.7207 20.9419 22.7207C23.5442 22.7207 25.9297 21.7196 27.4477 19.8286C28.3152 22.0533 29.8332 22.6095 31.1344 22.6095C32.2187 22.6095 33.5198 22.4983 34.7126 21.8309C35.5383 21.4073 35.9867 20.2743 36.2494 19.6105C36.3317 19.4026 36.3958 19.2408 36.4475 19.1612C37.5318 21.3859 39.592 22.7207 42.3027 22.7207C44.4713 22.7207 46.5315 22.0533 48.2664 20.6073C48.3748 20.8297 48.4833 21.0522 48.7001 21.1634C49.2423 21.8309 50.3266 22.6095 52.1699 22.6095C53.4711 22.6095 54.7723 22.2758 55.8566 21.4971C56.3987 22.0533 57.483 22.7207 58.8926 22.7207C59.9769 22.7207 61.0612 22.387 62.0371 21.9421C62.7961 22.4983 63.6636 22.7207 64.8563 22.7207C66.5912 22.7207 68.2177 22.1646 69.1935 21.0522C70.061 21.9421 71.579 22.832 74.0729 22.832C76.4584 22.832 78.7354 21.2747 79.9282 19.2724C80.904 17.1589 79.9282 14.4893 76.8921 14.6005ZM4.35201 3.81051C4.89416 3.69928 6.73748 3.47682 8.36394 3.47682C8.13161 3.49271 7.89486 3.5086 7.65811 3.52449L7.65803 3.52449C6.23737 3.61983 4.81671 3.71517 4.35201 3.81051ZM8.36396 5.92383H9.33982C10.5325 5.92383 11.2915 6.81371 11.2915 8.14853C11.2915 10.1508 10.2073 11.3744 8.68925 11.3744H7.49653L8.1471 7.14742C8.20132 6.92495 8.22842 6.73028 8.25553 6.53562C8.28264 6.34096 8.30975 6.1463 8.36396 5.92383ZM22.0262 10.5962C21.3756 10.5962 20.8334 11.931 20.6166 13.0434H21.0503C21.9178 13.0434 22.5684 12.4872 22.6768 11.8198V11.5973C22.6768 11.3748 22.6768 11.1524 22.4599 11.0411C22.4599 10.7074 22.2431 10.5962 22.0262 10.5962ZM44.0376 10.5962C44.0376 10.5962 44.146 10.5962 44.2544 10.7074C44.4713 10.8187 44.4713 11.0411 44.3629 11.0411C44.5797 11.7085 44.5797 12.3759 44.5797 12.9321V13.822C44.5797 13.9888 44.5526 14.1279 44.5255 14.2669C44.4984 14.406 44.4713 14.545 44.4713 14.7119C44.4713 14.8231 44.4442 14.9343 44.4171 15.0456C44.39 15.1568 44.3629 15.268 44.3629 15.3793C44.3629 15.4905 44.3358 15.5739 44.3087 15.6574C44.2816 15.7408 44.2544 15.8242 44.2544 15.9355C44.0585 16.6391 43.7739 17.0703 43.5609 17.3931C43.5382 17.4275 43.5163 17.4606 43.4954 17.4927C43.4954 17.604 43.387 17.7152 43.2786 17.7152H43.0617C42.8449 17.7152 42.7365 17.4927 42.628 17.2703C42.628 17.2703 42.5196 17.159 42.5196 17.0478C42.5196 16.9366 42.4925 16.8531 42.4654 16.7697C42.4383 16.6863 42.4112 16.6029 42.4112 16.4916V16.2692V15.268C42.4112 14.6006 42.5196 13.9332 42.628 13.3771C42.628 13.331 42.6466 13.2658 42.6684 13.1895C42.6992 13.0815 42.7365 12.9512 42.7365 12.8209C42.7907 12.7096 42.8178 12.5984 42.8449 12.4872C42.872 12.3759 42.8991 12.2647 42.9533 12.1535C43.0617 12.0422 43.0617 11.931 43.0617 11.931C43.0617 11.5624 43.2106 11.3465 43.3849 11.0935L43.3851 11.0933L43.3854 11.0928C43.4214 11.0407 43.4584 10.9869 43.4954 10.9299C43.6039 10.9299 43.6039 10.8187 43.6039 10.8187C43.6039 10.7074 43.7123 10.7074 43.7123 10.7074C43.8207 10.5962 43.9292 10.5962 44.0376 10.5962ZM12.4843 12.5984C14.3276 11.5972 15.5204 10.04 15.6288 8.14895C15.6288 8.03771 15.6288 7.92648 15.7372 7.81524C15.7372 7.3703 15.6288 6.92535 15.5204 6.48041C15.3035 6.03548 15.0867 5.70178 14.8698 5.36807L14.8698 5.36806C14.6529 5.25682 14.4361 5.03436 14.2192 4.81189L14.2192 4.81188C14.1108 4.75626 13.9752 4.67284 13.8397 4.58941C13.7042 4.50598 13.5686 4.42255 13.4602 4.36694C12.4843 3.922 11.4 3.69952 10.3157 3.69952H8.79768H8.47239C6.84593 3.69952 5.00261 3.92199 4.46046 4.03323V4.81188C4.46046 5.59053 4.35203 6.48041 4.2436 7.25906L2.61714 17.604C2.50871 17.9377 2.50871 18.1601 2.50871 18.4939C2.61714 19.6062 3.15929 19.8287 3.80987 19.8287C4.56889 19.8287 5.76162 19.7174 6.7375 19.2725C6.62907 19.05 6.62907 18.8276 6.62907 18.6051V18.4939C6.62907 18.0489 6.62907 17.7152 6.7375 17.2703L7.27965 13.822H8.47239L9.66513 17.4927C10.4241 19.6062 11.5084 19.8287 12.3759 19.8287C13.2433 19.8287 14.2192 19.7174 14.9782 19.3837C15.0611 19.3413 15.1281 19.315 15.1853 19.2926L15.1853 19.2926C15.2779 19.2563 15.3449 19.23 15.412 19.1613C14.8698 18.7163 14.5445 18.2714 14.1108 17.0478L12.4843 12.5984ZM21.701 15.1564H21.2672H21.1588H20.6167V15.3789C20.7251 16.6025 21.1588 17.6036 22.3516 17.6036H22.5684C23.1777 17.5411 23.6501 17.2679 24.0432 17.0405C24.3496 16.8632 24.608 16.7137 24.8455 16.7137C25.0623 16.7137 25.3876 16.825 25.6045 16.9362L26.1466 17.2699C25.7129 17.8261 25.2792 18.2711 24.737 18.716C23.6527 19.4947 22.3516 19.8284 21.0504 19.8284C18.2312 19.8284 16.4963 18.1598 16.3879 15.6014V15.1564C16.3879 11.9306 18.448 8.25977 23.1106 8.25977C23.7612 8.25977 24.5202 8.371 25.0623 8.59348C26.1466 9.03842 26.7972 9.81708 26.7972 10.9294C26.6888 12.3755 25.9298 14.7115 21.701 15.1564ZM33.6283 19.3839C33.8451 18.6052 34.1704 17.9378 34.6041 17.2704C35.9053 15.0456 37.098 12.9321 38.0739 10.8186C38.3992 10.1512 38.5076 9.4838 38.6161 8.70514H38.3992H37.6402H37.5318H36.9896H36.6643H36.2306H35.4716C35.4174 8.872 35.3903 9.01105 35.3632 9.1501C35.336 9.28914 35.3089 9.42818 35.2547 9.59503C35.0379 10.4849 34.7126 11.3748 34.3873 12.1535C34.0981 12.9692 33.7126 13.7849 33.3271 14.6006L33.3271 14.6007L33.3271 14.6007L33.327 14.6008L33.327 14.6008L33.327 14.6008C33.1342 15.0087 32.9415 15.4165 32.7608 15.8243L32.0018 10.8186C31.9476 10.7074 31.9205 10.5684 31.8934 10.4293L31.8934 10.4293C31.8663 10.2903 31.8391 10.1512 31.7849 10.04C31.7849 9.98436 31.7578 9.92874 31.7307 9.87313C31.7036 9.81751 31.6765 9.76189 31.6765 9.70627C31.5681 9.37256 31.4596 9.03885 31.2428 8.70514H30.8091H30.7006H30.4838H30.3753H30.1585H30.05H29.7247H29.0742H28.7489H28.532C28.1727 8.70514 27.8878 8.78148 27.554 8.87092C27.4849 8.88944 27.4137 8.90853 27.3393 8.92761C27.773 9.92874 28.0983 11.0411 28.3151 12.1535L29.3995 17.6041C29.7247 19.4951 30.3753 19.8288 31.1343 19.8288C32.0018 19.8288 32.7608 19.7176 33.6283 19.3839ZM47.8327 17.2701C47.399 17.8263 46.9653 18.2713 46.4231 18.605C46.3689 18.6606 46.3147 18.6884 46.2605 18.7162C46.2062 18.744 46.152 18.7718 46.0978 18.8274C45.9894 18.8274 45.881 18.9387 45.881 19.0499C45.8267 19.0499 45.7725 19.0777 45.7183 19.1055C45.6641 19.1333 45.6099 19.1611 45.5557 19.1611C45.5014 19.1611 45.4472 19.1889 45.393 19.2168C45.3388 19.2446 45.2846 19.2724 45.2304 19.2724C45.0135 19.3836 44.7966 19.4948 44.4714 19.4948H44.3629C44.2545 19.4948 44.1461 19.4948 44.1461 19.6061H44.0376H43.8208H43.7123H43.4955H43.3871H43.1702H43.0618H42.628H42.1943H41.9775H41.6522H41.4353H41.2184H41.0016C40.8932 19.6061 40.7847 19.6061 40.7847 19.4948C40.7847 19.4948 40.6763 19.4948 40.5679 19.3836C40.4594 19.3836 40.4594 19.3836 40.351 19.2724C40.351 19.2724 40.2426 19.2724 40.1341 19.1611C40.1341 19.1611 40.0257 19.0499 39.9173 19.0499C39.8631 19.0499 39.836 19.0221 39.8088 18.9943C39.7817 18.9665 39.7546 18.9387 39.7004 18.9387C39.7004 18.9387 39.592 18.8274 39.4836 18.8274L39.3751 18.7162L39.2667 18.605L39.1583 18.4937L39.0498 18.3825C39.0498 18.3825 38.9414 18.2713 38.9414 18.16C38.9414 18.16 38.833 18.0488 38.833 17.9375C38.833 17.9375 38.7245 17.8263 38.7245 17.7151C38.7245 17.7151 38.7245 17.6038 38.6161 17.4926C38.5619 17.437 38.5619 17.4092 38.5619 17.3814C38.5619 17.3536 38.5619 17.3258 38.5077 17.2701C38.5077 17.2701 38.5077 17.1589 38.3993 17.0477C38.3993 17.0001 38.3993 16.9729 38.3908 16.9486C38.3794 16.9161 38.3529 16.8889 38.2908 16.8252V16.6027V16.3803V16.1578C38.2908 16.0465 38.2637 15.9353 38.2366 15.8241C38.2095 15.7128 38.1824 15.6016 38.1824 15.4904V14.9342C38.1824 12.487 39.2667 10.4848 41.0016 9.26119C41.0986 9.19481 41.186 9.12844 41.2695 9.06502L41.2696 9.06496C41.466 8.91584 41.6408 8.78305 41.869 8.70501C42.1943 8.59377 42.5196 8.48254 42.8449 8.26007C42.9719 8.26007 43.0618 8.2219 43.1362 8.19028C43.1888 8.16792 43.2337 8.14883 43.2786 8.14883C43.4955 8.14883 43.6039 8.14883 43.7123 8.0376H44.1461H44.2545H44.7966H45.2304H45.3388H45.6641H45.7725C45.881 8.0376 45.9894 8.0376 46.2062 8.14883H46.3147C46.4231 8.14883 46.5315 8.14883 46.5315 8.26007H46.64C46.6942 8.26007 46.7484 8.28788 46.8026 8.31569C46.8568 8.34349 46.911 8.3713 46.9653 8.3713C46.9653 8.3713 47.0737 8.3713 47.0737 8.48254C47.0737 8.48254 47.1821 8.59377 47.2906 8.59377C47.2906 8.59377 47.399 8.59377 47.399 8.70501C47.399 8.70501 47.5074 8.81625 47.6158 8.81625C47.6829 8.81625 47.7085 8.85873 47.7438 8.91745C47.7657 8.95374 47.7913 8.99623 47.8327 9.03872L47.9411 9.14995L48.0496 9.26119L48.158 9.37242C48.2664 9.48366 48.3749 9.59489 48.4833 9.81736C48.4833 9.87298 48.5104 9.90079 48.5375 9.9286C48.5646 9.95641 48.5917 9.98422 48.5917 10.0398V10.1511C48.917 10.9297 49.1339 11.7084 49.1339 12.487C49.2423 14.4893 48.7001 16.0465 47.8327 17.2701ZM55.965 6.25792C55.965 5.70174 56.0735 5.03433 56.1819 4.47816C56.1819 4.36692 56.1819 4.14445 56.0735 3.81075V2.58716H54.447H53.9048C53.688 2.69839 53.3627 2.69839 53.1458 2.69839H52.929C52.8205 2.80963 52.6037 2.80963 52.4952 2.80963H52.2784H52.0615V4.03322C52.0073 4.3113 51.9802 4.56157 51.9531 4.81185C51.926 5.06213 51.8989 5.31241 51.8447 5.59051V6.03545L50.1098 17.159V17.7151V17.9376V18.1601V18.3825V18.4938C50.2182 18.4938 50.2182 18.605 50.2182 18.605C50.3266 18.8275 50.4351 18.9387 50.6519 19.05H50.7603H50.8688H50.9772H51.0856H51.1941H51.3025H51.4109H51.5194H51.6278H51.7362H51.9531H52.3868H52.4952H52.8205H53.0374H53.2543H53.4711C53.5253 19.05 53.5796 19.0222 53.6338 18.9943C53.688 18.9665 53.7422 18.9387 53.7964 18.9387C53.9048 18.8275 54.0133 18.8275 54.0133 18.8275H54.1217C54.2301 18.8275 54.3386 18.7163 54.3386 18.7163H54.447C54.6639 18.605 54.8807 18.3825 55.0976 18.1601C54.9892 18.1601 54.7723 18.0488 54.5554 17.9376L54.447 17.8264C54.3386 17.8264 54.3386 17.7151 54.3386 17.7151V17.6039V17.3814V17.159L55.5313 9.3725L55.965 6.25792ZM67.7839 18.4937C67.2418 19.2724 66.1574 19.8286 64.8563 19.8286H64.4226C64.3141 19.8286 64.2057 19.8286 63.9888 19.7173C63.9439 19.7173 63.899 19.6983 63.8464 19.6759C63.772 19.6443 63.6822 19.6061 63.5551 19.6061C63.013 19.3836 62.5792 18.7162 62.7961 17.6039V17.3814C62.7961 17.4926 62.6877 17.6039 62.5792 17.7151C62.4708 17.9376 62.254 18.16 62.1455 18.2713C61.9287 18.4937 61.8202 18.605 61.6034 18.7162C61.562 18.7587 61.5205 18.785 61.4852 18.8074C61.4279 18.8437 61.3865 18.8699 61.3865 18.9387C61.1697 19.0499 60.9528 19.1612 60.8444 19.2724C60.5817 19.452 60.2484 19.5591 59.9585 19.6523C59.8894 19.6745 59.8227 19.6959 59.7601 19.7173C59.6516 19.7173 59.5703 19.7451 59.489 19.773C59.4077 19.8008 59.3263 19.8286 59.2179 19.8286H58.7842H58.4589H58.3505H58.1336H58.0252H57.9167H57.8083C56.8324 19.3836 56.5071 18.16 56.8324 16.6027L57.483 12.1533V11.8196V11.7084V11.4859V11.2634V11.041V10.2623V10.1511V9.92861V9.81737V9.5949V8.81625H57.6999H57.9167H58.0252H58.1336H58.242H58.3505H58.4589H58.5673H58.6758H58.7842H58.8926H59.001H59.1095H59.2179H59.3263H59.4348H59.5432H59.7601H59.8685H60.0853H60.1938H60.4106H60.5191H60.7359H60.8444H61.0612H61.1697H61.3865H61.4949H61.8202C61.8202 9.4536 61.7323 10.1811 61.6405 10.9414C61.5881 11.3753 61.5343 11.8199 61.4949 12.2646L60.9528 16.0466C60.9528 16.1022 60.9257 16.2968 60.8986 16.4915C60.8715 16.6862 60.8444 16.8808 60.8444 16.9365V17.4926C60.8444 17.6039 60.8444 17.7151 60.9528 17.8263L61.0612 17.9376C61.1697 17.9376 61.3865 17.8263 61.6034 17.4926C61.8925 17.196 62.0853 16.8994 62.278 16.6028L62.278 16.6028C62.3744 16.4544 62.4708 16.3061 62.5792 16.1578L62.9045 15.4904C63.013 15.2679 63.1214 15.0454 63.1214 14.823C63.1214 14.7769 63.14 14.7308 63.1618 14.6768C63.1926 14.6005 63.2298 14.5084 63.2298 14.378L63.5551 12.2646C63.5551 12.0808 63.588 11.9308 63.6175 11.796C63.6416 11.6859 63.6635 11.5859 63.6635 11.4859C63.6635 11.2635 63.6907 11.0688 63.7178 10.8742L63.7178 10.8741C63.7449 10.6794 63.772 10.4848 63.772 10.2623C63.772 10.0522 63.7962 9.86696 63.8217 9.67136C63.8502 9.45267 63.8804 9.22107 63.8804 8.92748C64.0512 8.92748 64.362 8.89435 64.7551 8.85245C65.6095 8.76136 66.8526 8.62883 67.8923 8.70501C67.8923 9.83395 67.7077 10.8682 67.5088 11.9825L67.4586 12.2646L66.6996 17.4926C66.808 18.16 67.1333 18.4937 67.7839 18.4937ZM70.1694 16.3801V17.1587C70.2778 18.716 71.6874 19.9396 73.9644 20.1621C75.5909 20.1621 77.2174 19.161 77.7595 17.9374C77.7595 17.9374 77.2174 17.4924 76.4584 17.3812C76.3348 17.3812 76.2269 17.4775 76.0931 17.5969C75.8745 17.7919 75.5867 18.0486 75.0488 18.0486C74.5066 18.0486 74.1813 17.4924 74.1813 16.7138V16.4913V16.2688L75.0488 10.8183H76.0246H76.4584C78.3017 10.8183 78.5185 10.3733 78.5185 9.81717C78.5185 9.37223 78.4101 9.03852 78.1932 8.59358C77.7595 8.92729 77.3258 9.03852 76.1331 9.03852H75.374C75.3945 8.82906 75.4149 8.62748 75.4346 8.43305C75.5195 7.59497 75.5909 6.88965 75.5909 6.25763H74.1813H73.7476H73.3139C73.0598 6.25763 72.8429 6.2958 72.6633 6.32742C72.5362 6.34978 72.4278 6.36887 72.338 6.36887C72.1836 7.00228 71.9194 7.57934 71.6626 8.14016C71.5586 8.36723 71.4559 8.59164 71.3621 8.81605H70.3862H69.8441C69.7356 9.5947 69.7356 10.3733 69.8441 11.152C69.9525 11.0408 70.1694 11.0408 70.2778 11.0408C70.3862 10.9295 70.4947 10.9295 70.7115 10.9295H71.0368L70.1694 16.3801Z" fill="white" fill-opacity="0.7"/>
</svg>
