<svg width="112" height="33" viewBox="0 0 112 33" fill="none" xmlns="http://www.w3.org/2000/svg">
<path fill-rule="evenodd" clip-rule="evenodd" d="M109.111 11.1715H108.77V10.6728H109.111C109.259 10.6728 109.38 10.7632 109.38 10.9179C109.38 11.0579 109.282 11.1715 109.111 11.1715ZM109.366 11.5315C109.691 11.4721 109.897 11.2312 109.897 10.898C109.897 10.4756 109.596 10.1966 109.134 10.1966H108.511C108.376 10.1966 108.251 10.2886 108.251 10.4528V12.2002C108.251 12.3817 108.36 12.4741 108.511 12.4741C108.661 12.4741 108.77 12.3817 108.77 12.2002V11.5514H108.777L109.415 12.3478C109.48 12.4274 109.527 12.4741 109.66 12.4741C109.86 12.4741 109.926 12.3096 109.926 12.2362C109.926 12.151 109.889 12.0899 109.818 12.0149L109.366 11.5315ZM109.088 13.3217C108.04 13.3217 107.184 12.4754 107.184 11.4378C107.184 10.4019 108.04 9.56274 109.088 9.56274C110.138 9.56274 110.992 10.4019 110.992 11.4378C110.992 12.4754 110.138 13.3217 109.088 13.3217ZM109.088 8.95338C107.702 8.95338 106.575 10.0703 106.575 11.4378C106.575 12.8103 107.702 13.9242 109.088 13.9242C110.476 13.9242 111.602 12.8103 111.602 11.4378C111.602 10.0703 110.476 8.95338 109.088 8.95338ZM22.5146 8.27156L12.433 18.2397V18.238C12.2466 18.4113 11.9542 18.4084 11.772 18.2282H11.7707C9.13285 15.2761 9.24016 10.7648 12.096 7.94158C14.9376 5.13207 19.4681 5.01196 22.4559 7.57832C22.4716 7.58974 22.4874 7.60378 22.5031 7.61977C22.6853 7.7983 22.6895 8.08748 22.5146 8.27156ZM20.4156 24.1994C17.5742 27.0086 13.0437 27.1304 10.0573 24.5637C10.0403 24.551 10.0245 24.5369 10.0088 24.5226C9.82793 24.3427 9.82366 24.0539 9.99727 23.8691L20.0789 13.9027C20.2666 13.7297 20.5577 13.7343 20.7411 13.9125C23.3807 16.8649 23.2717 21.3765 20.4156 24.1994ZM30.189 0H2.32284C1.03934 0 0 1.02778 0 2.29644V29.8449C0 31.1132 1.03934 32.1407 2.32284 32.1407H30.189C31.4722 32.1407 32.5115 31.1132 32.5115 29.8449V2.29644C32.5115 1.02778 31.4722 0 30.189 0ZM46.7206 14.5081C45.3 13.9549 44.4296 13.5753 44.4296 12.7476C44.4296 12.0857 44.9629 11.4182 46.1572 11.4182C46.9057 11.4182 47.5378 11.7427 47.9822 12.3563C48.2778 12.7476 48.6188 12.9486 48.9946 12.9486C49.7071 12.9486 50.3093 12.3723 50.3093 11.6901C50.3093 11.4293 50.239 11.1885 50.1058 10.993C49.3201 9.7912 47.697 8.95338 46.1572 8.95338C44.0368 8.95338 41.8922 10.2586 41.8922 12.7476C41.8922 15.3104 44.0181 16.1293 45.723 16.7912C47.0892 17.3157 48.2706 17.7723 48.2706 18.9029C48.2706 19.728 47.4892 20.5668 45.9967 20.5668C45.5408 20.5668 44.6863 20.4636 44.1228 19.7789C43.8218 19.4346 43.4648 19.242 43.1166 19.242C42.4284 19.242 41.8016 19.8412 41.8016 20.496C41.8016 20.7584 41.8849 21.0077 42.0497 21.2417C42.8413 22.421 44.6347 23.0346 45.9967 23.0346C48.3307 23.0346 50.8081 21.5861 50.8081 18.9029C50.8081 16.1012 48.5417 15.2193 46.7206 14.5081ZM100.77 18.5742C100.77 19.9209 99.8929 20.4947 98.8119 20.4947H98.74C97.6593 20.4947 96.7805 19.9209 96.7805 18.5742V13.4108C96.7805 12.3478 97.6593 11.4891 98.74 11.4891H98.8119C99.8929 11.4891 100.77 12.3478 100.77 13.4108V18.5742ZM98.8119 8.95338H98.74C96.237 8.95338 94.224 10.9518 94.224 13.4108V18.5742C94.224 18.723 94.2082 18.8732 94.224 19.0191V28.837C94.224 29.5202 94.7878 30.0744 95.4845 30.0744C96.1796 30.0744 96.7431 29.5202 96.7431 28.837V22.4122C97.2232 22.8319 98.022 23.0303 98.74 23.0303H98.8119C101.315 23.0303 103.223 20.9043 103.223 18.4466V13.2874C103.223 10.8255 101.315 8.95338 98.8119 8.95338ZM90.4335 8.95338C89.7496 8.95338 89.2019 9.47788 89.1704 10.1368H89.1618V18.6679C89.1618 19.7064 88.2987 20.5485 87.2364 20.5485H87.1632C86.098 20.5485 85.2365 19.7064 85.2365 18.6679V10.2191C85.2365 10.2119 85.2391 10.2021 85.2391 10.1949L85.2365 10.1682V10.1368H85.2336C85.2021 9.47788 84.6501 8.95338 83.9691 8.95338C83.2894 8.95338 82.7374 9.47788 82.7059 10.1368H82.6974V18.6679C82.6974 21.073 84.7003 23.0346 87.1632 23.0346H87.2364C89.6981 23.0346 91.7039 21.073 91.7039 18.6679V10.1368H91.6967C91.6649 9.47788 91.1145 8.95338 90.4335 8.95338ZM60.639 8.95338C59.9593 8.95338 59.4073 9.47788 59.3758 10.1368H59.3702V18.6679C59.3702 19.7064 58.5055 20.5485 57.4402 20.5485H57.37C56.3077 20.5485 55.4433 19.7064 55.4433 18.6679V10.2191C55.4433 10.2119 55.4446 10.2021 55.4446 10.1949L55.4433 10.1682V10.1368H55.4403C55.4072 9.47788 54.8568 8.95338 54.1772 8.95338C53.4949 8.95338 52.9445 9.47788 52.9127 10.1368H52.9028V18.6679C52.9028 21.073 54.907 23.0346 57.37 23.0346H57.4402C59.9048 23.0346 61.909 21.073 61.909 18.6679V10.1368H61.9034C61.8719 9.47788 61.3212 8.95338 60.639 8.95338ZM75.5047 8.95338H75.4345C74.1956 8.95338 73.0775 9.46221 72.2732 10.2759C71.4701 9.46645 70.355 8.96186 69.1178 8.96186H69.0488C66.6144 8.96186 64.6316 10.9179 64.6316 13.3246V21.8498H64.6388C64.669 22.5084 65.2138 23.0346 65.8875 23.0346C66.5613 23.0346 67.106 22.5084 67.1362 21.8498H67.1434V13.3246C67.1434 12.2841 67.9964 11.4408 69.0488 11.4408H69.1178C70.1443 11.4408 70.9772 12.2401 71.0202 13.2437C71.0202 13.2692 71.0173 13.2917 71.0173 13.3171V21.8439H71.0228C71.0346 22.092 71.119 22.3218 71.2552 22.5084C71.4833 22.826 71.8544 23.0346 72.2788 23.0346C72.9525 23.0346 73.4973 22.5084 73.5291 21.8498H73.5363V13.3246C73.5363 13.2962 73.5347 13.2692 73.5334 13.2424C73.5734 12.2375 74.408 11.4339 75.4345 11.4339H75.5047C76.5585 11.4339 77.4098 12.2773 77.4098 13.3171V21.7604C77.4098 21.7689 77.4072 21.7773 77.4072 21.7858C77.4072 21.7959 77.4098 21.8041 77.4098 21.8129V21.8439H77.4144C77.4443 22.5016 77.9877 23.0274 78.6631 23.0274C79.3369 23.0274 79.8803 22.5016 79.9118 21.8439H79.9217V13.3171C79.9217 10.9107 77.9392 8.95338 75.5047 8.95338Z" fill="white" fill-opacity="0.7"/>
</svg>
