<svg width="125" height="22" viewBox="0 0 125 22" fill="none" xmlns="http://www.w3.org/2000/svg">
<path fill-rule="evenodd" clip-rule="evenodd" d="M65.4842 11.6141V11.3521C65.4842 10.1433 66.0964 9.48517 67.2523 9.48517C67.6574 9.48517 68.4076 9.61948 68.9507 9.74708L69.5628 8.41065C68.7526 8.08158 67.8644 7.94727 67.1915 7.94727C65.295 7.94727 63.5959 8.88075 63.5959 11.3521V11.6141H62.3116V13.152H63.5877V21.1034H65.4842V13.152H67.3814L68.0626 11.6141H65.4842ZM104.638 10.2115H102.535V8.27063H104.638V10.2115ZM104.5 21.1034H102.603V11.4797H104.5V21.1034ZM97.0336 18.2375H96.9646L94.5243 11.4814H92.8259L90.0406 18.2375H89.9716L88.0751 8.27795H86.0399L88.6182 21.1185H90.5147L93.5671 14.0267H93.6361L96.2835 21.1185H98.18L101.439 8.27795H99.4732L97.0336 18.2375ZM67.9246 16.3552C67.9246 13.4808 70.0288 11.3452 72.7444 11.3452C75.8659 11.3452 77.3573 13.4808 77.2281 16.2209V16.8924H71.3911L72.0722 15.4217H75.331C75.262 14.421 74.7188 12.816 72.6843 12.816C70.9162 12.816 69.83 14.421 69.83 16.288C69.83 18.296 71.1232 19.6929 72.9514 19.6929C74.0978 19.6929 75.0468 19.2967 75.7969 18.558L76.9521 19.6258C76.0729 20.7003 74.5118 21.3047 72.8134 21.3047C69.9598 21.3047 67.9246 19.3638 67.9246 16.3552ZM45.4118 12.7421C45.9556 11.8086 47.102 11.3452 48.3952 11.3452C50.6975 11.3452 52.1889 12.6145 52.2579 15.0926V21.1032H50.3614V15.4217C50.3614 13.6218 49.4815 12.8831 47.9901 12.8831C46.4297 12.8831 45.4118 14.0181 45.4118 15.8918V21.1032H43.5153V11.4795H45.3428V12.7421H45.4118ZM36.6521 11.3452C35.4968 11.3452 34.4789 11.4795 33.6686 11.8086L34.0047 13.2794C34.9537 13.0174 35.7038 12.8831 36.4451 12.8831C38.0744 12.8831 39.3595 13.6219 39.3595 15.1598V15.4217C38.8164 15.2202 38.0744 15.0255 36.8502 15.0255C34.2726 15.0255 32.5735 16.288 32.5735 18.3028C32.5735 20.4451 34.2726 21.3786 36.1001 21.3786C37.6604 21.3786 38.7474 20.7742 39.2905 20.1026H39.3595V21.2443H41.187V15.2269C41.1959 12.4802 39.4367 11.3452 36.6521 11.3452ZM36.3849 19.7736C38.1434 19.7736 39.3677 18.8401 39.3677 17.4366H39.3766V16.9597C38.9024 16.6307 38.0915 16.4225 36.7983 16.4225C35.436 16.4225 34.4878 17.0941 34.4878 18.1686C34.4878 19.3035 35.367 19.7736 36.3849 19.7736ZM15.8984 10.01H20.1751V21.1045H22.2014V10.01H26.4775V8.27063H15.8984V10.01ZM28.3747 12.5477C28.9178 11.809 29.9351 11.4127 31.022 11.4127C31.3663 11.4127 32.0392 11.4799 32.7115 11.6142L32.3064 13.085C32.2241 13.0733 32.146 13.0617 32.0702 13.0503L32.0702 13.0503C31.7093 12.9965 31.4019 12.9506 30.953 12.9506C29.3919 12.9506 28.3747 13.817 28.3747 15.8183V21.1036H26.4775V11.4799H28.3057V12.5477H28.3747ZM81.0909 12.5474H81.0219V11.4796H79.1937V21.1032H81.0909V15.8179C81.0909 13.8167 82.2461 12.9503 83.7375 12.9503C84.187 12.9503 84.4947 12.9962 84.8556 13.0501C84.9313 13.0614 85.0094 13.073 85.0916 13.0846L85.4967 11.6139C84.8846 11.352 84.2123 11.352 83.8673 11.352C82.7893 11.4124 81.634 11.8087 81.0909 12.5474ZM124.383 16.9596H118.546L119.089 15.4217H122.348C122.279 14.421 121.736 12.816 119.701 12.816C117.942 12.816 116.855 14.421 116.855 16.288C116.855 18.296 118.149 19.6929 119.977 19.6929C121.124 19.6929 122.072 19.2967 122.822 18.558L123.977 19.6258C123.098 20.7003 121.538 21.3047 119.839 21.3047C116.985 21.3047 114.95 19.3638 114.95 16.3552C114.95 13.4808 117.054 11.3452 119.77 11.3452C122.891 11.3452 124.383 13.5413 124.383 16.288V16.9596ZM58.0267 15.556C56.5346 15.3545 55.7155 15.0926 55.7155 14.1524C55.7155 13.2861 56.5948 12.8227 57.6127 12.8227C58.4919 12.8227 59.5782 13.1518 60.2593 13.6219L61.2083 12.3459C60.3283 11.6743 58.9661 11.3452 57.6817 11.3452C55.4395 11.3452 53.8101 12.6145 53.8101 14.28C53.8101 16.2209 55.0945 16.8253 57.2677 17.1544L57.4372 17.182C58.5905 17.3696 59.5782 17.5302 59.5782 18.4908C59.5782 19.3571 58.6989 19.7668 57.5437 19.7668C56.3884 19.7668 55.4395 19.4982 54.4222 18.7594L53.612 20.163C54.3621 20.7674 55.8535 21.3047 57.4829 21.3047C59.7941 21.3047 61.4146 20.0287 61.4146 18.296C61.4836 16.2276 59.7251 15.7642 58.0267 15.556ZM108.225 14.1524C108.225 15.0926 109.044 15.3545 110.536 15.556C112.303 15.7642 113.993 16.2276 113.924 18.296C113.924 20.0287 112.303 21.3047 109.992 21.3047C108.363 21.3047 106.871 20.7674 106.121 20.163L106.931 18.7594C107.949 19.4982 108.898 19.7668 110.053 19.7668C111.208 19.7668 112.087 19.3571 112.087 18.4908C112.087 17.5302 111.1 17.3696 109.946 17.182C109.89 17.1729 109.834 17.1637 109.777 17.1544C107.613 16.8253 106.319 16.2209 106.319 14.28C106.319 12.6145 107.949 11.3452 110.191 11.3452C111.475 11.3452 112.837 11.6743 113.717 12.3459L112.768 13.6219C112.087 13.1518 111.001 12.8227 110.122 12.8227C109.104 12.8227 108.225 13.2861 108.225 14.1524Z" fill="white" fill-opacity="0.7"/>
<path d="M1.89403 0.271973L4.62811 4.79197L0 9.31196H8.02228L8.88814 7.51477H4.29399L7.02807 4.75818L5.35679 2.10294H12.882L6.351 17.5412H8.57915L15.8986 0.271973H1.89403Z" fill="white" fill-opacity="0.7"/>
</svg>
